# xmcd CD database file
#
# Track frame offsets:
#	150
#	11700
#	23392
#	37680
#	49415
#	60202
#	71805
#	85722
#	98422
#	114160
#	129975
#	144120
#	154207
#	167482
#	181472
#	193772
#
# Disc length: 2721 seconds
#
# Revision: 0
# Processed by: cddbd v1.5.2PL0 Copyright (c) Steve Scherf et al.
# Submitted via: CDex 1.70beta3
#
DISCID=b90a9f10
DTITLE=Muddy Waters - Rare And Unissued
DYEAR=1984
DGENRE=Blues
TTITLE0=Little Anna Mae
TTITLE1=Mean Dispositon
TTITLE2=I Feel Like Going Home
TTITLE3=You're Gonna Kiss Me
TTITLE4=Standing Here Trembling
TTITLE5=Last Time I Fool Around With You
TTITLE6=Where's My Woman Been
TTITLE7=Stuff You Gotta Watch
TTITLE8=Lonesome Day
TTITLE9=Iodine In My Coffee
TTITLE10=Smokestack Lightnin'
TTITLE11=Let Me Hang Around
TTITLE12=Born Lover
TTITLE13=Deep Down In My Heart
TTITLE14=Good Looking Woman
TTITLE15=Mean Red Spider
EXTD=YEAR: 1984
EXTT0=
EXTT1=
EXTT2=
EXTT3=
EXTT4=
EXTT5=
EXTT6=
EXTT7=
EXTT8=
EXTT9=
EXTT10=
EXTT11=
EXTT12=
EXTT13=
EXTT14=
EXTT15=
PLAYORDER=
